<svg xmlns="http://www.w3.org/2000/svg" viewBox="0 0 474.41 144.65"><defs><style>.cls-1{fill:#fff;}</style></defs><title>Asset 2</title><g id="Layer_2" data-name="Layer 2"><g id="Layer_1-2" data-name="Layer 1"><path class="cls-1" d="M216.28,71.33a7.59,7.59,0,0,0-5.87-2.43,7.78,7.78,0,0,0-6.72,3.67,14.38,14.38,0,0,0-2,6.82H219Q218.52,73.77,216.28,71.33Z"/><path class="cls-1" d="M201.61,88.69c.32,3.12,1.08,5.44,2.3,7a8,8,0,0,0,6.67,3.29,9.25,9.25,0,0,0,4.94-1.43,12.08,12.08,0,0,0,3.08-3.19l15.83,1.61V88.69Z"/><path class="cls-1" d="M333.51,68.9a7.8,7.8,0,0,0-6.72,3.67,14.38,14.38,0,0,0-2,6.82h17.39q-.52-5.62-2.76-8.06A7.58,7.58,0,0,0,333.51,68.9Z"/><path class="cls-1" d="M54,0,0,144.65H420.46L474.41,0Zm63.9,80.91L58.21,108.13V87.76L94.45,72.38,58.21,57V36.52l59.64,27.26ZM406,101.45A21.37,21.37,0,0,1,397.9,108a29.16,29.16,0,0,1-12.51,2.34,42.15,42.15,0,0,1-12.2-1.5A20.78,20.78,0,0,1,364.8,104a23.12,23.12,0,0,1-7.27-15.29H324.71c.32,3.12,1.08,5.44,2.3,7a8,8,0,0,0,6.67,3.29,9.28,9.28,0,0,0,4.95-1.43,12.07,12.07,0,0,0,3.07-3.19l17.39,1.76q-4,7.64-9.63,11t-16.17,3.31q-9.14,0-14.39-2.84a22.06,22.06,0,0,1-8.69-9,25.81,25.81,0,0,1-2.16-5.15,23.78,23.78,0,0,1-2.41,5.51,21.78,21.78,0,0,1-9.45,8.61q-6.06,2.92-15.3,2.93-16.22,0-22.45-6.87a26.77,26.77,0,0,1-6.32-12.4V109.2H234.43V98.77a24.3,24.3,0,0,1-8.07,8.26q-5.62,3.31-16.17,3.31-9.15,0-14.39-2.84a22.06,22.06,0,0,1-8.69-9,25.12,25.12,0,0,1-1.85-4.2V109.2H165.54V80.92H144.08V109.2H124.44V39.29h19.64V63.75h21.46V39.29h19.72V73.65a24.22,24.22,0,0,1,5.32-8.9q6.9-7.34,19.09-7.34,9.89,0,15.61,3.29A21.26,21.26,0,0,1,234,70.24c.16.32.3.67.44,1v-32h17.69V86l17.93-1.24a16.65,16.65,0,0,0,2.48,7.63,10,10,0,0,0,8.67,4.25,9,9,0,0,0,6.48-2.18,6.76,6.76,0,0,0,2.27-5,6.66,6.66,0,0,0-2.17-4.86q-2.16-2.15-10-4-12.93-3.2-18.43-8.49a17.85,17.85,0,0,1-5.55-13.5,19.7,19.7,0,0,1,2.84-10.18,19.38,19.38,0,0,1,8.54-7.53q5.7-2.75,15.63-2.74,12.18,0,18.58,5T307,58.93l-18.51,1.2q-.75-4.73-3.1-6.87a9.36,9.36,0,0,0-6.53-2.15,7.42,7.42,0,0,0-5.16,1.6,5.11,5.11,0,0,0-1.73,3.89,4,4,0,0,0,1.43,3c.92.93,3.12,1.78,6.59,2.58q12.87,3,18.44,6.17a20.15,20.15,0,0,1,8.11,7.75,18.67,18.67,0,0,1,.81,1.69,25,25,0,0,1,6.38-13q6.92-7.34,19.09-7.34,9.89,0,15.61,3.29a21.26,21.26,0,0,1,8.71,9.54,25.24,25.24,0,0,1,1.48,4,21.67,21.67,0,0,1,1.16-3.12,23.21,23.21,0,0,1,4.85-6.83,22.56,22.56,0,0,1,6.33-4.51q5.16-2.33,13.23-2.33,11.26,0,17.18,4.43t8.31,13L393,77.25a8.76,8.76,0,0,0-15.45-3.08q-2.71,3.45-2.71,10.44,0,6.24,2.69,9.48a8.52,8.52,0,0,0,6.85,3.23,8.87,8.87,0,0,0,5.83-1.95,11.87,11.87,0,0,0,3.53-6l16.78,2.1A27.26,27.26,0,0,1,406,101.45Z"/></g></g></svg>