<svg xmlns="http://www.w3.org/2000/svg" viewBox="0 0 300.25 300.25">
  <defs>
    <style>
      .cls-1 {
        fill: #666;
      }

      .cls-2 {
        fill: #c61200;
      }

      .cls-3 {
        fill: #ff6f3e;
      }

      .cls-4 {
        fill: #f72a1b;
      }
    </style>
  </defs>
  <g id="Front">
    <rect width="300.25" height="300.25"/>
    <g id="Hoodie">
      <path class="cls-1" d="M336.83,346c-10.64-.79-11.54-7-11.37-7.65,0-.76.1-1.42.86-1.67a1.85,1.85,0,0,1,.55-.08C329.76,336.56,331.52,340.53,336.83,346Z" transform="translate(-200.6 -212.59)"/>
      <path class="cls-1" d="M364.12,346c5.34-5.46,7.11-9.4,10-9.4a1.85,1.85,0,0,1,.55.08c.77.25.9.91.87,1.67C375.67,338.91,374.91,345.16,364.12,346Z" transform="translate(-200.6 -212.59)"/>
      <g>
        <path class="cls-2" d="M371.29,301.72c-12.28-13-2.37-17.71-8.16-25.79a36.38,36.38,0,0,0-7.48-7.11c-1.68-.88-3.4-1.74-5.17-2.56-.9.42-1.79.85-2.67,1.28,4.16,4.71,9.52,11.13,9.63,13.53l-.14.56c-.94,1.56-5.74.32-7.11,1.39l-.31.43a2.44,2.44,0,0,0,.07,1.37c3.85,10,5.47,12.95-.39,22.14l.82-.32-.05,0h.16l0,0c13.94.58,18.83,1.89,29.86,5.86C385.05,313.65,376.92,308.24,371.29,301.72Z" transform="translate(-200.6 -212.59)"/>
        <path class="cls-2" d="M313.75,407.37a94.71,94.71,0,0,1-15.46-20.87A98.44,98.44,0,0,0,301.88,399a56.63,56.63,0,0,0,6.65,13.74c7.93,8,17,15.12,28.25,17.55L330,423.21Q313.22,407.12,313.75,407.37Z" transform="translate(-200.6 -212.59)"/>
        <path class="cls-2" d="M309.57,425.84a150.77,150.77,0,0,1-13.67-16.79,84,84,0,0,0,4.38,13.19c1,2.27,2.05,4.33,3.1,6.2a68.69,68.69,0,0,0,8,6q5.85,4,18.34,7.68Q319.66,437,309.57,425.84Z" transform="translate(-200.6 -212.59)"/>
        <path class="cls-2" d="M295.45,435.83c.2.41.41.82.61,1.22a69.67,69.67,0,0,0,5.75,5q4.86,3.86,9.53,6.95c-2.33-2.46-12.95-14.58-21.75-26.39Q291.36,427.42,295.45,435.83Z" transform="translate(-200.6 -212.59)"/>
        <g>
          <path class="cls-3" d="M284.36,373.87v-.3l-.32-.25c-1.19.34-2.34.71-3.41,1.11a8.64,8.64,0,0,0-4,6.17c-.14,13.24,8.19,28.26,18.59,39.84C280.94,392.05,280.14,385.86,284.36,373.87Z" transform="translate(-200.6 -212.59)"/>
          <g>
            <path class="cls-4" d="M371.29,301.72c-12.28-13-2.37-17.71-8.16-25.79a36.38,36.38,0,0,0-7.48-7.11c-1.68-.88-3.4-1.74-5.17-2.56-20.45,9.52-34.83,22.88-47.67,48.62-5.25,10.35-10.58,24.83-10.14,36.44,10-20.24,36.05-36.33,57.71-44.68l-.05,0h.16l0,0c13.94.58,18.83,1.89,29.86,5.86C385.05,313.65,376.92,308.24,371.29,301.72Z" transform="translate(-200.6 -212.59)"/>
            <path class="cls-4" d="M313.75,407.37c-12.62-13-15.18-21.85-20.59-29.06.49,7.41,1.83,12.67,2.83,15.14a51.51,51.51,0,0,0,11.09,17.83c8.27,8.64,17.74,16.47,29.7,19.05L330,423.21Q313.22,407.12,313.75,407.37Z" transform="translate(-200.6 -212.59)"/>
            <path class="cls-4" d="M309.57,425.84c-22.24-24-25.25-37.79-25.21-52.62-1.31.37-2.56.77-3.73,1.21a8.64,8.64,0,0,0-4,6.17c-.2,19.78,18.47,43.54,34.73,53.84q5.85,4,18.34,7.68Q319.66,437,309.57,425.84Z" transform="translate(-200.6 -212.59)"/>
            <path class="cls-4" d="M271.67,379.79c-6.41,6.17-4.57,12.47-1.46,20.49,5.21,11.87,18.08,31.4,31.6,41.73q4.86,3.86,9.53,6.95c-3.59-3.78-26.74-30.38-32.78-43.62Q270.3,388,271.67,379.79Z" transform="translate(-200.6 -212.59)"/>
            <g>
              <path class="cls-1" d="M408.29,351c.6-19.91-16-52.34-32.92-68.28,11.55,15.06,19.94,30.48,25.31,50.4-18.62-13.14-22.94-16-34.61-19.64C372.76,317.09,397.14,333,408.29,351Z" transform="translate(-200.6 -212.59)"/>
              <path class="cls-1" d="M429.47,382.94q-.25,8.1-7.07,22.4c-4.19,9.18-14.19,21.56-20.24,28.88a126.42,126.42,0,0,0,10.92-10.32c6.42-6.82,15.9-21.55,17.42-30.77Q431.51,388.84,429.47,382.94Z" transform="translate(-200.6 -212.59)"/>
              <path class="cls-1" d="M406.71,387c-9.8,13.06-8.88,12-24.31,34.88,4.2-3.4,16.55-16.86,23.16-30.15A46.54,46.54,0,0,0,406.71,387Z" transform="translate(-200.6 -212.59)"/>
              <path class="cls-1" d="M424.3,380.6a8.47,8.47,0,0,0-3.14-5.53,74.49,74.49,0,0,1-3.3,19.36A102.07,102.07,0,0,1,405.8,418C416.16,408.53,424.44,394.44,424.3,380.6Z" transform="translate(-200.6 -212.59)"/>
              <path class="cls-4" d="M376.77,471.75a73.75,73.75,0,0,1-52.58,0l3.44,12.09c-19.91-14.81-47.09-33.06-67.2-67.64-7.68-12.51-12.89-29.23-4.59-41.49,2.88-5,9-9.94,19.26-15.47,1.21-22.56,7.22-44.53,19.13-63.73,14.5-23.39,33.46-37.14,56.25-47.33,22.88,10.24,41.8,23.95,56.33,47.46a125.23,125.23,0,0,1,13.91,31.92,146,146,0,0,1,5.14,31.68c10.21,5.54,16.38,10.51,19.26,15.47,8.29,12.26,3.08,29-4.59,41.49-20.12,34.57-47.3,52.83-67.2,67.65Z" transform="translate(-200.6 -212.59)"/>
            </g>
          </g>
        </g>
      </g>
      <path d="M439.3,378.36q-3.53-6.42-20.13-14.89c-1.34-47.42-24.26-87.9-68.69-107.77-44.24,19.79-67.35,60.1-68.69,107.77q-16.6,8.47-20.13,14.89c-6.78,9.69-1.57,24.22,4.65,34.34q17.38,29.91,49.2,53.59L312.85,457c18.88,17.11,56.48,17,75.26,0l-2.66,9.34q31.8-23.68,49.19-53.59C440.86,402.58,446.08,388.05,439.3,378.36Zm-18.14-3.29a8.45,8.45,0,0,1,3.14,5.53c.14,13.84-8.14,27.93-18.5,37.4a102.26,102.26,0,0,0,12.06-23.57A74.49,74.49,0,0,0,421.16,375.07ZM408.29,351c-11.15-18-35.53-33.88-42.23-37.52,11.68,3.65,16,6.5,34.62,19.64-5.37-19.92-13.76-35.34-25.31-50.4C392.33,298.63,408.89,331.06,408.29,351ZM301.82,442c-13.52-10.33-26.4-29.86-31.6-41.73-3.12-8-5-14.32,1.45-20.49q-1.38,8.22,6.89,25.56c6,13.23,29.19,39.82,32.78,43.61Q306.68,445.86,301.82,442Zm9.57-7.57c-16.26-10.3-34.93-34.06-34.73-53.84a8.64,8.64,0,0,1,4-6.17c1.17-.44,2.41-.84,3.73-1.21,0,14.83,3,28.59,25.21,52.62q10.1,11.21,20.15,16.28Q317.24,438.4,311.39,434.44Zm-4.31-23.16A51.51,51.51,0,0,1,296,393.45c-1-2.47-2.34-7.73-2.82-15.14,5.4,7.21,8,16.09,20.58,29.06q-.51-.25,16.29,15.83l6.74,7.13C324.82,427.75,315.35,419.92,307.08,411.28Zm18.38-73c0-.76.1-1.42.86-1.67a1.85,1.85,0,0,1,.55-.08c2.89,0,4.65,4,10,9.4C326.19,345.17,325.29,338.91,325.46,338.31Zm25-31.71h-.17l.05,0c-21.66,8.35-47.67,24.43-57.71,44.68-.44-11.61,4.89-26.09,10.14-36.44,12.83-25.74,27.22-39.1,47.67-48.63q2.65,1.25,5.17,2.57a36.65,36.65,0,0,1,7.48,7.11c5.79,8.08-4.12,12.8,8.16,25.79,5.63,6.52,13.76,11.93,9.11,10.77-11-4-15.93-5.29-29.87-5.88ZM364.12,346c5.34-5.46,7.11-9.4,10-9.4a1.85,1.85,0,0,1,.55.08c.77.25.9.91.87,1.67C375.67,338.91,374.91,345.16,364.12,346Zm18.28,75.93C397.83,399,396.91,400.06,406.71,387q-.56,2.81-1.14,4.74C399,405,386.6,418.5,382.4,421.89Zm48.1-28.76c-1.52,9.22-11,23.95-17.42,30.77a126.42,126.42,0,0,1-10.92,10.32c6-7.32,16-19.7,20.24-28.87q6.83-14.31,7.07-22.41Q431.5,388.84,430.5,393.13Z" transform="translate(-200.6 -212.59)"/>
    </g>
  </g>
</svg>
